<svg aria-labelledby="shop-name" width="70" height="36" viewBox="0 0 70 36" fill="none" xmlns="http://www.w3.org/2000/svg">
  <title id="shop-name">Hiya Health | Essential Super Nutrients for Kids</title>
  <path d="M69.3903 8.75676L69.0292 10.0842L68.6639 8.75676H68.0556V10.7027H68.4333V9.17089L68.8314 10.7027H69.2228L69.6224 9.17089V10.7027H70V8.75676H69.3903ZM67.0833 9.08589H67.4464V10.7027H67.6934V9.08589H68.0556V8.75676H67.0833V9.08589ZM39.7347 18.0821C39.7347 19.577 39.3697 20.7628 38.6408 21.6387C37.9114 22.5163 36.9054 22.9543 35.6222 22.9543C33.3178 22.9543 32.1659 21.3738 32.1659 18.211V8.75676H27.2222V18.384C27.2222 24.3051 29.6865 27.2653 34.616 27.2653C38.4957 27.2653 39.9972 24.9376 39.9972 24.9376V25.1355C39.9972 29.6762 37.8677 31.9477 33.6097 31.9477C30.487 31.9477 28.5116 30.887 28.473 30.887V34.8558C30.318 35.6159 32.1903 36 34.0909 36C37.9697 36 40.7114 34.9223 42.3158 32.7668C43.9197 30.6105 44.7222 27.4775 44.7222 23.3674V8.75676H39.7771L39.7347 18.0821ZM20.4167 27.2432H25.2778V8.75676H20.4167V27.2432ZM22.3772 0C21.4959 0 20.7869 0.26737 20.2502 0.803051C19.7129 1.33826 19.4444 2.0487 19.4444 2.93437C19.4444 3.81946 19.7129 4.52508 20.2502 5.05018C20.7869 5.57529 21.4959 5.83784 22.3772 5.83784C23.2579 5.83784 23.9614 5.57 24.4882 5.03467C25.0143 4.49899 25.2778 3.79924 25.2778 2.93437C25.2778 2.0695 25.0143 1.36388 24.4882 0.818564C23.9614 0.272776 23.2579 0 22.3772 0ZM10.3485 8.9921C7.53105 8.9921 6.02778 9.73565 4.83756 11.151V0H0V27.2432H4.7963L4.83756 18.0613C4.86532 16.694 5.26491 15.5987 6.03653 14.7723C6.80772 13.9474 7.83827 13.5342 9.12852 13.5342C11.5402 13.5342 12.7464 15.0578 12.7464 18.1034V27.2432H17.5V18.0185C17.5 12.1819 15.1159 8.9921 10.3485 8.9921ZM59.0789 21.8721C58.2795 22.8586 57.2068 23.3514 55.8606 23.3514C54.5421 23.3514 53.4904 22.8586 52.7057 21.8721C51.9201 20.8863 51.5278 19.5953 51.5278 17.9996C51.5278 16.3756 51.9201 15.078 52.7057 14.1061C53.4904 13.135 54.5283 12.6486 55.8187 12.6486C57.1924 12.6486 58.2795 13.105 59.0789 14.0189C59.8782 14.9326 60.2778 16.231 60.2778 17.9131C60.2778 19.5662 59.8782 20.8863 59.0789 21.8721ZM66.2891 23.3328C66.023 23.3095 65.7263 23.2687 65.505 23.109C65.3176 22.9737 65.2078 22.7669 65.152 22.5483C65.0525 22.1574 65.0035 21.5144 65.0035 20.62V9.21768L61.6122 9.22414L60.9433 11.2227C59.5359 9.74147 57.1344 8.75676 54.8485 8.75676C52.0054 8.75676 50.1339 9.90175 48.895 11.3351C47.4095 13.0532 46.6667 15.2827 46.6667 18.0206C46.6667 20.732 47.3882 22.946 48.8314 24.665C50.2747 26.3838 52.241 27.2432 54.7316 27.2432C59.6236 27.2432 61.1407 23.9316 61.1407 23.9316C61.1974 24.9373 61.4732 25.7338 61.9686 26.3207C62.4633 26.9077 63.3618 27.2013 64.664 27.2013H67.0833V23.348C66.8193 23.3465 66.5523 23.3558 66.2891 23.3328Z" fill="#054B7E"></path>
</svg>